<svg id="visual" viewBox="0 0 900 600" width="900" height="600" xmlns="http://www.w3.org/2000/svg" xmlns:xlink="http://www.w3.org/1999/xlink" version="1.1"><rect x="0" y="0" width="900" height="600" fill="#081112"></rect><defs><linearGradient id="grad1_0" x1="33.3%" y1="0%" x2="100%" y2="100%"><stop offset="20%" stop-color="#081112" stop-opacity="1"></stop><stop offset="80%" stop-color="#081112" stop-opacity="1"></stop></linearGradient></defs><defs><linearGradient id="grad2_0" x1="0%" y1="0%" x2="66.7%" y2="100%"><stop offset="20%" stop-color="#081112" stop-opacity="1"></stop><stop offset="80%" stop-color="#081112" stop-opacity="1"></stop></linearGradient></defs><g transform="translate(900, 0)"><path d="M0 351.5C-68.8 346.5 -137.5 341.6 -175.8 304.4C-214 267.3 -221.7 198.1 -246 142C-270.2 85.9 -310.9 43 -351.5 0L0 0Z" fill="#1B2823"></path></g><g transform="translate(0, 600)"><path d="M0 -351.5C66 -344.9 132 -338.4 175.8 -304.4C219.6 -270.5 241.1 -209.3 266.7 -154C292.3 -98.7 321.9 -49.4 351.5 0L0 0Z" fill="#1B2823"></path></g></svg>