<svg id="visual" viewBox="0 0 900 600" width="900" height="600" xmlns="http://www.w3.org/2000/svg" xmlns:xlink="http://www.w3.org/1999/xlink" version="1.1"><rect x="0" y="0" width="900" height="600" fill="#081112"></rect><path d="M0 417L15 415.7C30 414.3 60 411.7 90 411C120 410.3 150 411.7 180 413.2C210 414.7 240 416.3 270 421.2C300 426 330 434 360 438.2C390 442.3 420 442.7 450 441.7C480 440.7 510 438.3 540 433.7C570 429 600 422 630 421.5C660 421 690 427 720 424.3C750 421.7 780 410.3 810 405.8C840 401.3 870 403.7 885 404.8L900 406L900 601L885 601C870 601 840 601 810 601C780 601 750 601 720 601C690 601 660 601 630 601C600 601 570 601 540 601C510 601 480 601 450 601C420 601 390 601 360 601C330 601 300 601 270 601C240 601 210 601 180 601C150 601 120 601 90 601C60 601 30 601 15 601L0 601Z" fill="#8fc999"></path><path d="M0 439L15 440.8C30 442.7 60 446.3 90 452.8C120 459.3 150 468.7 180 471C210 473.3 240 468.7 270 468.3C300 468 330 472 360 474.5C390 477 420 478 450 475.2C480 472.3 510 465.7 540 459.7C570 453.7 600 448.3 630 444.2C660 440 690 437 720 440.3C750 443.7 780 453.3 810 455.3C840 457.3 870 451.7 885 448.8L900 446L900 601L885 601C870 601 840 601 810 601C780 601 750 601 720 601C690 601 660 601 630 601C600 601 570 601 540 601C510 601 480 601 450 601C420 601 390 601 360 601C330 601 300 601 270 601C240 601 210 601 180 601C150 601 120 601 90 601C60 601 30 601 15 601L0 601Z" fill="#6c9e7c"></path><path d="M0 473L15 478.3C30 483.7 60 494.3 90 496.7C120 499 150 493 180 493.8C210 494.7 240 502.3 270 505.8C300 509.3 330 508.7 360 506.5C390 504.3 420 500.7 450 497C480 493.3 510 489.7 540 491.5C570 493.3 600 500.7 630 498.2C660 495.7 690 483.3 720 477.8C750 472.3 780 473.7 810 479C840 484.3 870 493.7 885 498.3L900 503L900 601L885 601C870 601 840 601 810 601C780 601 750 601 720 601C690 601 660 601 630 601C600 601 570 601 540 601C510 601 480 601 450 601C420 601 390 601 360 601C330 601 300 601 270 601C240 601 210 601 180 601C150 601 120 601 90 601C60 601 30 601 15 601L0 601Z" fill="#4d745e"></path><path d="M0 525L15 525.3C30 525.7 60 526.3 90 527.7C120 529 150 531 180 529.8C210 528.7 240 524.3 270 525.2C300 526 330 532 360 533.7C390 535.3 420 532.7 450 527.7C480 522.7 510 515.3 540 513.2C570 511 600 514 630 519.2C660 524.3 690 531.7 720 533.5C750 535.3 780 531.7 810 530.7C840 529.7 870 531.3 885 532.2L900 533L900 601L885 601C870 601 840 601 810 601C780 601 750 601 720 601C690 601 660 601 630 601C600 601 570 601 540 601C510 601 480 601 450 601C420 601 390 601 360 601C330 601 300 601 270 601C240 601 210 601 180 601C150 601 120 601 90 601C60 601 30 601 15 601L0 601Z" fill="#324c40"></path><path d="M0 546L15 550.2C30 554.3 60 562.7 90 566.2C120 569.7 150 568.3 180 567.8C210 567.3 240 567.7 270 564.8C300 562 330 556 360 554.2C390 552.3 420 554.7 450 558.2C480 561.7 510 566.3 540 566.8C570 567.3 600 563.7 630 562.3C660 561 690 562 720 559.5C750 557 780 551 810 548.7C840 546.3 870 547.7 885 548.3L900 549L900 601L885 601C870 601 840 601 810 601C780 601 750 601 720 601C690 601 660 601 630 601C600 601 570 601 540 601C510 601 480 601 450 601C420 601 390 601 360 601C330 601 300 601 270 601C240 601 210 601 180 601C150 601 120 601 90 601C60 601 30 601 15 601L0 601Z" fill="#1b2823"></path></svg>